<svg width="0" height="0" class="hidden">
  <symbol  xmlns="http://www.w3.org/2000/svg" viewBox="0 0 46 45" id="chat-icon">
    <path d="M24.875 20.625H13.625C13.1277 20.625 12.6508 20.8225 12.2992 21.1742C11.9475 21.5258 11.75 22.0027 11.75 22.5C11.75 22.9973 11.9475 23.4742 12.2992 23.8258C12.6508 24.1775 13.1277 24.375 13.625 24.375H24.875C25.3723 24.375 25.8492 24.1775 26.2008 23.8258C26.5525 23.4742 26.75 22.9973 26.75 22.5C26.75 22.0027 26.5525 21.5258 26.2008 21.1742C25.8492 20.8225 25.3723 20.625 24.875 20.625ZM32.375 13.125H13.625C13.1277 13.125 12.6508 13.3225 12.2992 13.6742C11.9475 14.0258 11.75 14.5027 11.75 15C11.75 15.4973 11.9475 15.9742 12.2992 16.3258C12.6508 16.6775 13.1277 16.875 13.625 16.875H32.375C32.8723 16.875 33.3492 16.6775 33.7008 16.3258C34.0525 15.9742 34.25 15.4973 34.25 15C34.25 14.5027 34.0525 14.0258 33.7008 13.6742C33.3492 13.3225 32.8723 13.125 32.375 13.125ZM36.125 3.75H9.875C8.38316 3.75 6.95242 4.34263 5.89752 5.39752C4.84263 6.45242 4.25 7.88316 4.25 9.375V28.125C4.25 29.6168 4.84263 31.0476 5.89752 32.1025C6.95242 33.1574 8.38316 33.75 9.875 33.75H31.6062L38.5437 40.7062C38.7189 40.88 38.9267 41.0175 39.1552 41.1108C39.3836 41.2041 39.6282 41.2514 39.875 41.25C40.121 41.2563 40.365 41.205 40.5875 41.1C40.9299 40.9593 41.223 40.7205 41.4299 40.4135C41.6368 40.1065 41.7481 39.7452 41.75 39.375V9.375C41.75 7.88316 41.1574 6.45242 40.1025 5.39752C39.0476 4.34263 37.6168 3.75 36.125 3.75ZM38 34.8562L33.7062 30.5437C33.531 30.37 33.3233 30.2325 33.0948 30.1392C32.8664 30.0459 32.6218 29.9986 32.375 30H9.875C9.37772 30 8.90081 29.8025 8.54917 29.4508C8.19754 29.0992 8 28.6223 8 28.125V9.375C8 8.87772 8.19754 8.4008 8.54917 8.04917C8.90081 7.69754 9.37772 7.5 9.875 7.5H36.125C36.6223 7.5 37.0992 7.69754 37.4508 8.04917C37.8025 8.4008 38 8.87772 38 9.375V34.8562Z"></path>
  </symbol>
  <symbol  xmlns="http://www.w3.org/2000/svg" viewBox="0 0 51 50" id="group-icon">
    <path fill-rule="evenodd" clip-rule="evenodd" d="M12.4469 32.399C11.9677 32.3302 11.4583 32.2917 10.9167 32.2917C6.92708 32.2917 4.69896 34.3969 3.84479 35.4459C3.70625 35.6261 3.6323 35.8469 3.6323 36.075C3.6323 36.0813 3.63229 36.0875 3.63125 36.0927C3.625 36.4782 3.625 36.9886 3.625 37.5C3.625 38.075 4.09167 38.5417 4.66667 38.5417H12.1375C12.0198 38.2105 11.9583 37.8584 11.9583 37.5C11.9583 36.3146 11.9583 34.9021 11.9625 34.0677C11.9625 33.474 12.1323 32.8959 12.4469 32.399ZM35.9167 38.5417H15.0833C14.8073 38.5417 14.5417 38.4323 14.3469 38.2365C14.151 38.0417 14.0417 37.7761 14.0417 37.5C14.0417 36.3177 14.0417 34.9115 14.0458 34.074C14.0458 34.0719 14.0458 34.0698 14.0458 34.0677C14.0458 33.8282 14.1292 33.5969 14.2802 33.4115C15.5729 31.9355 19.4792 28.125 25.5 28.125C32.3146 28.125 35.7365 31.9282 36.7833 33.3625C36.899 33.5386 36.9583 33.7375 36.9583 33.9407V37.5C36.9583 37.7761 36.849 38.0417 36.6531 38.2365C36.4583 38.4323 36.1927 38.5417 35.9167 38.5417ZM38.8625 38.5417H46.3333C46.9083 38.5417 47.375 38.075 47.375 37.5V36.074C47.375 35.8438 47.299 35.6209 47.1594 35.4386C46.301 34.3969 44.0719 32.2917 40.0833 32.2917C39.5698 32.2917 39.0854 32.3261 38.6292 32.3886C38.899 32.8605 39.0417 33.3959 39.0417 33.9427V37.5C39.0417 37.8584 38.9802 38.2105 38.8625 38.5417ZM10.9167 19.7917C8.04167 19.7917 5.70833 22.125 5.70833 25C5.70833 27.875 8.04167 30.2084 10.9167 30.2084C13.7917 30.2084 16.125 27.875 16.125 25C16.125 22.125 13.7917 19.7917 10.9167 19.7917ZM40.0833 19.7917C37.2083 19.7917 34.875 22.125 34.875 25C34.875 27.875 37.2083 30.2084 40.0833 30.2084C42.9583 30.2084 45.2917 27.875 45.2917 25C45.2917 22.125 42.9583 19.7917 40.0833 19.7917ZM25.5 11.4584C21.476 11.4584 18.2083 14.7261 18.2083 18.75C18.2083 22.774 21.476 26.0417 25.5 26.0417C29.524 26.0417 32.7917 22.774 32.7917 18.75C32.7917 14.7261 29.524 11.4584 25.5 11.4584Z"></path>
  </symbol>
  <symbol  xmlns="http://www.w3.org/2000/svg" viewBox="0 0 46 45" id="settings-icon">
    <path d="M40.475 17.9063L36.9313 16.725L38.6 13.3875C38.7692 13.0382 38.8257 12.6449 38.7619 12.2621C38.6981 11.8792 38.5171 11.5256 38.2438 11.25L34.25 7.25626C33.9729 6.97892 33.6159 6.79539 33.2292 6.73149C32.8424 6.66759 32.4453 6.72652 32.0938 6.90001L28.7563 8.56876L27.575 5.02501C27.4503 4.65562 27.2134 4.3343 26.8976 4.10578C26.5817 3.87726 26.2024 3.7529 25.8125 3.75001H20.1875C19.7944 3.74899 19.411 3.87154 19.0913 4.10033C18.7717 4.32913 18.532 4.65259 18.4063 5.02501L17.225 8.56876L13.8875 6.90001C13.5382 6.73084 13.1449 6.67426 12.7621 6.73807C12.3792 6.80188 12.0256 6.98294 11.75 7.25626L7.75626 11.25C7.47892 11.5271 7.29539 11.8841 7.23149 12.2709C7.16759 12.6576 7.22652 13.0547 7.40001 13.4063L9.06876 16.7438L5.52501 17.925C5.15562 18.0498 4.8343 18.2866 4.60578 18.6025C4.37726 18.9184 4.2529 19.2976 4.25001 19.6875V25.3125C4.24899 25.7056 4.37154 26.089 4.60033 26.4087C4.82913 26.7283 5.15259 26.968 5.52501 27.0938L9.06876 28.275L7.40001 31.6125C7.23084 31.9618 7.17426 32.3551 7.23807 32.7379C7.30188 33.1208 7.48294 33.4744 7.75626 33.75L11.75 37.7438C12.0271 38.0211 12.3841 38.2046 12.7709 38.2685C13.1576 38.3324 13.5547 38.2735 13.9063 38.1L17.2438 36.4313L18.425 39.975C18.5508 40.3474 18.7904 40.6709 19.1101 40.8997C19.4297 41.1285 19.8132 41.251 20.2063 41.25H25.8313C26.2243 41.251 26.6078 41.1285 26.9274 40.8997C27.2471 40.6709 27.4867 40.3474 27.6125 39.975L28.7938 36.4313L32.1313 38.1C32.4784 38.2649 32.8678 38.3192 33.2467 38.2554C33.6257 38.1917 33.9759 38.0131 34.25 37.7438L38.2438 33.75C38.5211 33.4729 38.7046 33.1159 38.7685 32.7292C38.8324 32.3424 38.7735 31.9453 38.6 31.5938L36.9313 28.2563L40.475 27.075C40.8444 26.9503 41.1657 26.7134 41.3942 26.3976C41.6227 26.0817 41.7471 25.7024 41.75 25.3125V19.6875C41.751 19.2944 41.6285 18.911 41.3997 18.5913C41.1709 18.2717 40.8474 18.032 40.475 17.9063ZM38 23.9625L35.75 24.7125C35.2326 24.8803 34.7579 25.1587 34.3589 25.5283C33.9598 25.8979 33.6459 26.3499 33.439 26.853C33.2321 27.356 33.1371 27.898 33.1605 28.4415C33.184 28.9849 33.3255 29.5167 33.575 30L34.6438 32.1375L32.5813 34.2L30.5 33.075C30.0192 32.8354 29.4925 32.702 28.9556 32.6837C28.4187 32.6654 27.8841 32.7626 27.3881 32.9689C26.8921 33.1751 26.4461 33.4855 26.0805 33.8791C25.7148 34.2726 25.438 34.7402 25.2688 35.25L24.5188 37.5H21.5375L20.7875 35.25C20.6197 34.7326 20.3413 34.2579 19.9717 33.8589C19.6021 33.4598 19.1501 33.1459 18.647 32.939C18.144 32.7321 17.602 32.6371 17.0586 32.6605C16.5151 32.684 15.9833 32.8255 15.5 33.075L13.3625 34.1438L11.3 32.0813L12.425 30C12.6746 29.5167 12.816 28.9849 12.8395 28.4415C12.863 27.898 12.7679 27.356 12.561 26.853C12.3541 26.3499 12.0402 25.8979 11.6412 25.5283C11.2421 25.1587 10.7674 24.8803 10.25 24.7125L8.00001 23.9625V21.0375L10.25 20.2875C10.7674 20.1197 11.2421 19.8413 11.6412 19.4717C12.0402 19.1021 12.3541 18.6501 12.561 18.147C12.7679 17.644 12.863 17.102 12.8395 16.5586C12.816 16.0151 12.6746 15.4833 12.425 15L11.3563 12.9188L13.4188 10.8563L15.5 11.925C15.9833 12.1746 16.5151 12.316 17.0586 12.3395C17.602 12.363 18.144 12.2679 18.647 12.061C19.1501 11.8541 19.6021 11.5402 19.9717 11.1412C20.3413 10.7421 20.6197 10.2674 20.7875 9.75001L21.5375 7.50001H24.4625L25.2125 9.75001C25.3803 10.2674 25.6587 10.7421 26.0283 11.1412C26.3979 11.5402 26.8499 11.8541 27.353 12.061C27.856 12.2679 28.398 12.363 28.9415 12.3395C29.4849 12.316 30.0167 12.1746 30.5 11.925L32.6375 10.8563L34.7 12.9188L33.575 15C33.3354 15.4808 33.202 16.0075 33.1837 16.5444C33.1654 17.0813 33.2626 17.6159 33.4689 18.1119C33.6751 18.6079 33.9855 19.0539 34.3791 19.4195C34.7726 19.7852 35.2402 20.062 35.75 20.2313L38 20.9813V23.9625ZM23 15C21.5166 15 20.0666 15.4399 18.8332 16.264C17.5999 17.0881 16.6386 18.2594 16.0709 19.6299C15.5033 21.0003 15.3547 22.5083 15.6441 23.9632C15.9335 25.418 16.6478 26.7544 17.6967 27.8033C18.7456 28.8522 20.082 29.5665 21.5368 29.8559C22.9917 30.1453 24.4997 29.9968 25.8701 29.4291C27.2406 28.8614 28.4119 27.9001 29.236 26.6668C30.0601 25.4334 30.5 23.9834 30.5 22.5C30.5 20.5109 29.7098 18.6032 28.3033 17.1967C26.8968 15.7902 24.9891 15 23 15ZM23 26.25C22.2583 26.25 21.5333 26.0301 20.9166 25.618C20.2999 25.206 19.8193 24.6203 19.5355 23.9351C19.2516 23.2498 19.1774 22.4958 19.3221 21.7684C19.4668 21.041 19.8239 20.3728 20.3484 19.8484C20.8728 19.3239 21.541 18.9668 22.2684 18.8221C22.9958 18.6774 23.7498 18.7516 24.4351 19.0355C25.1203 19.3193 25.706 19.7999 26.118 20.4166C26.5301 21.0333 26.75 21.7583 26.75 22.5C26.75 23.4946 26.3549 24.4484 25.6517 25.1517C24.9484 25.8549 23.9946 26.25 23 26.25Z"></path>
  </symbol>
  <symbol  xmlns="http://www.w3.org/2000/svg" viewBox="0 0 45 45" id="call-icon">
    <path d="M36.45 24.3751C36.0375 24.3751 35.6063 24.2438 35.1938 24.1501C34.3584 23.966 33.5375 23.7216 32.7375 23.4188C31.8677 23.1024 30.9115 23.1188 30.0531 23.4649C29.1946 23.8111 28.4945 24.4625 28.0875 25.2938L27.675 26.1376C25.8488 25.1216 24.1706 23.8599 22.6875 22.3876C21.2152 20.9045 19.9534 19.2263 18.9375 17.4001L19.725 16.8751C20.5563 16.468 21.2077 15.7679 21.5539 14.9095C21.9 14.051 21.9165 13.0949 21.6 12.2251C21.3023 11.4233 21.058 10.6028 20.8688 9.76881C20.775 9.35631 20.7 8.92506 20.6438 8.49381C20.4161 7.1731 19.7243 5.97707 18.693 5.12113C17.6618 4.26519 16.3588 3.80557 15.0188 3.82506H9.39376C8.58569 3.81747 7.78547 3.98408 7.04759 4.31355C6.3097 4.64302 5.65146 5.12761 5.11769 5.73434C4.58391 6.34106 4.18713 7.05567 3.95436 7.82952C3.72158 8.60337 3.65828 9.41829 3.76876 10.2188C4.76764 18.0739 8.35506 25.3723 13.9644 30.9612C19.5736 36.5502 26.8851 40.111 34.7438 41.0813H35.4563C36.8389 41.0833 38.1739 40.576 39.2063 39.6563C39.7994 39.1258 40.2733 38.4754 40.5965 37.7482C40.9197 37.0209 41.0849 36.2334 41.0813 35.4376V29.8126C41.0583 28.5102 40.584 27.2561 39.7394 26.2644C38.8948 25.2728 37.7322 24.605 36.45 24.3751ZM37.3875 35.6251C37.3872 35.8913 37.3301 36.1544 37.2202 36.3968C37.1103 36.6393 36.95 36.8556 36.75 37.0313C36.5405 37.2122 36.2955 37.3473 36.0308 37.428C35.766 37.5088 35.4873 37.5333 35.2125 37.5001C28.1904 36.5997 21.6679 33.3872 16.6738 28.3694C11.6797 23.3515 8.49828 16.8138 7.63126 9.78756C7.60141 9.5129 7.62757 9.23505 7.70813 8.97079C7.7887 8.70653 7.92201 8.46135 8.10001 8.25006C8.27571 8.05005 8.492 7.88976 8.73447 7.77984C8.97694 7.66992 9.24003 7.61289 9.50626 7.61256H15.1313C15.5673 7.60286 15.993 7.74546 16.3353 8.01582C16.6775 8.28617 16.9148 8.66738 17.0063 9.09381C17.0813 9.60631 17.175 10.1126 17.2875 10.6126C17.5041 11.601 17.7924 12.5723 18.15 13.5188L15.525 14.7376C15.3006 14.8405 15.0987 14.9868 14.9309 15.168C14.7632 15.3493 14.6329 15.5618 14.5475 15.7935C14.4621 16.0253 14.4234 16.2716 14.4335 16.5183C14.4436 16.765 14.5023 17.0073 14.6063 17.2313C17.3048 23.0115 21.9511 27.6578 27.7313 30.3563C28.1877 30.5438 28.6998 30.5438 29.1563 30.3563C29.3901 30.2727 29.605 30.1434 29.7885 29.976C29.9719 29.8087 30.1203 29.6065 30.225 29.3813L31.3875 26.7563C32.3568 27.103 33.3461 27.391 34.35 27.6188C34.85 27.7313 35.3563 27.8251 35.8688 27.9001C36.2952 27.9915 36.6764 28.2288 36.9467 28.571C37.2171 28.9133 37.3597 29.339 37.35 29.7751L37.3875 35.6251Z"></path>
  </symbol>
</svg>