<svg width="144" height="144" viewBox="0 0 144 144" fill="none" xmlns="http://www.w3.org/2000/svg">
<g clip-path="url(#clip0_296_75)">
<path d="M30.2541 90.9967C30.2541 99.3225 23.4529 106.124 15.127 106.124C6.80147 106.124 0 99.3225 0 90.9967C0 82.6711 6.80147 75.8696 15.127 75.8696H30.2541V90.9967Z" fill="#FF296B"/>
<path d="M37.8762 90.9967C37.8762 82.6711 44.6777 75.8696 53.0032 75.8696C61.3291 75.8696 68.1303 82.6711 68.1303 90.9967V128.873C68.1303 137.199 61.3291 144 53.0032 144C44.6777 144 37.8762 137.199 37.8762 128.873V90.9967Z" fill="#FF296B"/>
<path d="M53.0032 30.2541C44.6777 30.2541 37.8762 23.4529 37.8762 15.127C37.8762 6.80147 44.6777 0 53.0032 0C61.3291 0 68.1303 6.80147 68.1303 15.127V30.2541H53.0032Z" fill="#36C5F0"/>
<path d="M53.0032 37.876C61.3291 37.876 68.1303 44.6774 68.1303 53.003C68.1303 61.3288 61.3291 68.13 53.0032 68.13H15.127C6.80147 68.13 0 61.3288 0 53.003C0 44.6774 6.80147 37.876 15.127 37.876H53.0032Z" fill="#36C5F0"/>
<path d="M113.746 53.003C113.746 44.6774 120.547 37.876 128.873 37.876C137.199 37.876 144 44.6774 144 53.003C144 61.3288 137.199 68.13 128.873 68.13H113.746V53.003Z" fill="#0DB971"/>
<path d="M106.124 53.0032C106.124 61.3291 99.3226 68.1303 90.9968 68.1303C82.6712 68.1303 75.8698 61.3291 75.8698 53.0032V15.127C75.8698 6.80147 82.6712 0 90.9968 0C99.3226 0 106.124 6.80147 106.124 15.127V53.0032Z" fill="#0DB971"/>
<path d="M90.9968 113.746C99.3226 113.746 106.124 120.547 106.124 128.873C106.124 137.198 99.3226 144 90.9968 144C82.6712 144 75.8698 137.198 75.8698 128.873V113.746H90.9968Z" fill="#ECB22E"/>
<path d="M90.9968 106.124C82.6712 106.124 75.8698 99.3225 75.8698 90.9967C75.8698 82.6711 82.6712 75.8696 90.9968 75.8696H128.873C137.199 75.8696 144 82.6711 144 90.9967C144 99.3225 137.199 106.124 128.873 106.124H90.9968Z" fill="#ECB22E"/>
</g>
<defs>
<clipPath id="clip0_296_75">
<rect width="144" height="144" fill="white"/>
</clipPath>
</defs>
</svg>
