<svg width="128" height="128" viewBox="0 0 128 128" fill="none" xmlns="http://www.w3.org/2000/svg">
<g clip-path="url(#clip0_296_61)">
<path d="M26.8925 80.8862C26.8925 88.2869 20.847 94.3324 13.4462 94.3324C6.04575 94.3324 0 88.2869 0 80.8862C0 73.4857 6.04575 67.4399 13.4462 67.4399H26.8925V80.8862Z" fill="#FF296B"/>
<path d="M33.6677 80.8862C33.6677 73.4857 39.7135 67.4399 47.114 67.4399C54.5147 67.4399 60.5602 73.4857 60.5602 80.8862V114.554C60.5602 121.955 54.5147 128 47.114 128C39.7135 128 33.6677 121.955 33.6677 114.554V80.8862Z" fill="#FF296B"/>
<path d="M47.114 26.8925C39.7135 26.8925 33.6677 20.847 33.6677 13.4462C33.6677 6.04575 39.7135 0 47.114 0C54.5147 0 60.5602 6.04575 60.5602 13.4462V26.8925H47.114Z" fill="#36C5F0"/>
<path d="M47.114 33.668C54.5147 33.668 60.5602 39.7137 60.5602 47.1142C60.5602 54.515 54.5147 60.5605 47.114 60.5605H13.4462C6.04575 60.5605 0 54.515 0 47.1142C0 39.7137 6.04575 33.668 13.4462 33.668H47.114Z" fill="#36C5F0"/>
<path d="M101.107 47.1142C101.107 39.7137 107.153 33.668 114.554 33.668C121.954 33.668 128 39.7137 128 47.1142C128 54.515 121.954 60.5605 114.554 60.5605H101.107V47.1142Z" fill="#0DB971"/>
<path d="M94.3322 47.114C94.3322 54.5147 88.2867 60.5602 80.8859 60.5602C73.4854 60.5602 67.4397 54.5147 67.4397 47.114V13.4462C67.4397 6.04575 73.4854 0 80.8859 0C88.2867 0 94.3322 6.04575 94.3322 13.4462V47.114Z" fill="#0DB971"/>
<path d="M80.8859 101.108C88.2867 101.108 94.3322 107.154 94.3322 114.554C94.3322 121.955 88.2867 128 80.8859 128C73.4854 128 67.4397 121.955 67.4397 114.554V101.108H80.8859Z" fill="#ECB22E"/>
<path d="M80.8859 94.3324C73.4854 94.3324 67.4397 88.2869 67.4397 80.8862C67.4397 73.4857 73.4854 67.4399 80.8859 67.4399H114.554C121.954 67.4399 128 73.4857 128 80.8862C128 88.2869 121.954 94.3324 114.554 94.3324H80.8859Z" fill="#ECB22E"/>
</g>
<defs>
<clipPath id="clip0_296_61">
<rect width="128" height="128" fill="white"/>
</clipPath>
</defs>
</svg>
