<svg xmlns="http://www.w3.org/2000/svg" width="198" height="50" fill="none" xmlns:v="https://vecta.io/nano"><path d="M10.492 18.404c0-2.891-2.359-5.252-5.246-5.252S0 15.513 0 18.404s2.359 5.252 5.246 5.252h5.246v-5.252zm2.643 0c0 2.891 2.359 5.252 5.246 5.252s5.246-2.362 5.246-5.252V5.252c0-2.89-2.359-5.252-5.246-5.252s-5.246 2.362-5.246 5.252v13.151z" fill="#f9f6f6"/><path d="M18.381 39.495c-2.887 0-5.246 2.361-5.246 5.252S15.494 50 18.381 50s5.246-2.362 5.246-5.252v-5.252h-5.246zm0-2.646c2.887 0 5.246-2.362 5.246-5.252s-2.359-5.252-5.246-5.252H5.246C2.359 26.344 0 28.705 0 31.596s2.359 5.252 5.246 5.252h13.135z" fill="#36c5f0"/><path d="M39.446 31.596c0 2.891 2.359 5.252 5.246 5.252s5.246-2.362 5.246-5.252-2.359-5.252-5.246-5.252h-5.246v5.252zm-2.643 0c0-2.891-2.358-5.252-5.246-5.252s-5.246 2.362-5.246 5.252v13.151c0 2.891 2.359 5.252 5.246 5.252s5.246-2.362 5.246-5.252V31.596z" fill="#0db971"/><path d="M31.557 10.505c2.887 0 5.246-2.362 5.246-5.252S34.444 0 31.557 0s-5.246 2.362-5.246 5.252v5.252h5.246zm0 2.647c-2.887 0-5.246 2.361-5.246 5.252s2.359 5.252 5.246 5.252h13.135c2.887 0 5.246-2.362 5.246-5.252s-2.359-5.252-5.246-5.252H31.557z" fill="#ecb22e"/><g fill="#f9f6f6"><path d="M86.514 31.567c-.54 1.963-1.407 3.585-2.6 4.866-1.194 1.252-2.615 2.177-4.263 2.774-1.648.569-3.467.854-5.457.854-2.842 0-5.3-.569-7.375-1.707-2.075-1.167-3.666-2.831-4.774-4.994s-1.663-4.766-1.663-7.811.554-5.648 1.663-7.811 2.7-3.813 4.774-4.951c2.075-1.167 4.519-1.75 7.332-1.75 1.961 0 3.766.284 5.414.854 1.648.541 3.041 1.38 4.178 2.518s1.947 2.604 2.43 4.396l-6.437 2.604c-.398-1.764-1.051-2.974-1.961-3.628-.881-.654-2.004-.982-3.368-.982-1.336 0-2.501.327-3.496.982-.966.654-1.719 1.636-2.259 2.945-.511 1.281-.767 2.888-.767 4.823 0 1.907.242 3.514.725 4.823s1.208 2.291 2.174 2.945c.995.654 2.217.982 3.666.982 1.364 0 2.515-.37 3.453-1.11.966-.768 1.62-1.935 1.961-3.5l6.65 1.878zm11.41-8.963v-11.14h-7.332v28.171h7.332V28.281v-5.677z"/><path d="M108.667 28.281v-5.677H97.924v5.677h10.743z"/><path d="M115.999 39.634V11.463h-7.332v11.14 5.677 11.354h7.332z"/><path fill-rule="evenodd" d="M147.809 39.634h-7.546l-1.96-6.36h-9.635l-2.003 6.36h-7.375l9.89-28.171h8.781l9.848 28.171zm-10.871-11.354h-6.906l3.453-11.396 3.453 11.396z"/><path d="M171.202 11.463v5.677h-9.165v22.494h-7.333V17.14h-9.208v-5.677h25.706zm14.649-.426c2.614 0 4.916.413 6.906 1.238 2.017.797 3.765 1.978 5.243 3.543l-3.538 4.738c-1.222-1.28-2.544-2.234-3.965-2.86-1.392-.654-2.984-.982-4.774-.982-1.052 0-1.904.114-2.558.341s-1.123.541-1.407.939-.426.854-.426 1.366c0 .598.27 1.11.81 1.537.568.398 1.478.74 2.728 1.024l4.732 1.067c2.814.654 4.874 1.608 6.181 2.86s1.961 2.917 1.961 4.994c0 1.992-.511 3.685-1.534 5.079-1.024 1.366-2.43 2.405-4.221 3.116-1.79.683-3.836 1.024-6.138 1.024-1.876 0-3.667-.199-5.372-.598-1.705-.427-3.24-1.024-4.604-1.793s-2.515-1.65-3.453-2.646l3.538-4.908c.711.825 1.578 1.565 2.601 2.22 1.051.626 2.188 1.124 3.41 1.494a13.31 13.31 0 0 0 3.794.555c.995 0 1.819-.099 2.473-.299.682-.199 1.179-.498 1.492-.896a2.21 2.21 0 0 0 .469-1.408c0-.598-.213-1.096-.64-1.494-.426-.427-1.236-.782-2.43-1.067l-5.2-1.152c-1.592-.37-3.013-.854-4.263-1.451-1.222-.626-2.189-1.451-2.899-2.476-.711-1.053-1.066-2.362-1.066-3.927 0-1.764.483-3.329 1.45-4.695.966-1.394 2.358-2.49 4.177-3.287s3.993-1.195 6.523-1.195z"/></g></svg>