<svg width="192" height="192" viewBox="0 0 192 192" fill="none" xmlns="http://www.w3.org/2000/svg">
<g clip-path="url(#clip0_296_89)">
<path d="M40.3387 121.329C40.3387 132.43 31.2705 141.498 20.1694 141.498C9.06863 141.498 0 132.43 0 121.329C0 110.228 9.06863 101.16 20.1694 101.16H40.3387V121.329Z" fill="#FF296B"/>
<path d="M50.5016 121.329C50.5016 110.228 59.5702 101.16 70.671 101.16C81.7721 101.16 90.8403 110.228 90.8403 121.329V171.831C90.8403 182.932 81.7721 192 70.671 192C59.5702 192 50.5016 182.932 50.5016 171.831V121.329Z" fill="#FF296B"/>
<path d="M70.671 40.3387C59.5702 40.3387 50.5016 31.2705 50.5016 20.1694C50.5016 9.06863 59.5702 0 70.671 0C81.7721 0 90.8403 9.06863 90.8403 20.1694V40.3387H70.671Z" fill="#36C5F0"/>
<path d="M70.671 50.5015C81.7721 50.5015 90.8404 59.5701 90.8404 70.6708C90.8404 81.772 81.7721 90.8402 70.671 90.8402H20.1694C9.06863 90.8402 0 81.772 0 70.6708C0 59.5701 9.06863 50.5015 20.1694 50.5015H70.671Z" fill="#36C5F0"/>
<path d="M151.661 70.6708C151.661 59.5701 160.73 50.5015 171.831 50.5015C182.932 50.5015 192 59.5701 192 70.6708C192 81.772 182.932 90.8402 171.831 90.8402H151.661V70.6708Z" fill="#0DB971"/>
<path d="M141.498 70.671C141.498 81.7721 132.43 90.8404 121.329 90.8404C110.228 90.8404 101.16 81.7721 101.16 70.671V20.1694C101.16 9.06863 110.228 0 121.329 0C132.43 0 141.498 9.06863 141.498 20.1694V70.671Z" fill="#0DB971"/>
<path d="M121.329 151.661C132.43 151.661 141.498 160.73 141.498 171.831C141.498 182.932 132.43 192 121.329 192C110.228 192 101.16 182.932 101.16 171.831V151.661H121.329Z" fill="#ECB22E"/>
<path d="M121.329 141.498C110.228 141.498 101.16 132.43 101.16 121.329C101.16 110.228 110.228 101.16 121.329 101.16H171.831C182.932 101.16 192 110.228 192 121.329C192 132.43 182.932 141.498 171.831 141.498H121.329Z" fill="#ECB22E"/>
</g>
<defs>
<clipPath id="clip0_296_89">
<rect width="192" height="192" fill="white"/>
</clipPath>
</defs>
</svg>
