<svg width="96" height="96" viewBox="0 0 96 96" fill="none" xmlns="http://www.w3.org/2000/svg">
<g clip-path="url(#clip0_296_47)">
<path d="M20.1694 60.6643C20.1694 66.2148 15.6353 70.749 10.0847 70.749C4.53431 70.749 0 66.2148 0 60.6643C0 55.1139 4.53431 50.5796 10.0847 50.5796H20.1694V60.6643Z" fill="#FF296B"/>
<path d="M25.2509 60.6643C25.2509 55.1139 29.7852 50.5796 35.3355 50.5796C40.8861 50.5796 45.4202 55.1139 45.4202 60.6643V85.9151C45.4202 91.4657 40.8861 95.9998 35.3355 95.9998C29.7852 95.9998 25.2509 91.4657 25.2509 85.9151V60.6643Z" fill="#FF296B"/>
<path d="M35.3355 20.1694C29.7852 20.1694 25.2509 15.6353 25.2509 10.0847C25.2509 4.53431 29.7852 0 35.3355 0C40.8861 0 45.4202 4.53431 45.4202 10.0847V20.1694H35.3355Z" fill="#36C5F0"/>
<path d="M35.3355 25.251C40.8861 25.251 45.4202 29.7853 45.4202 35.3357C45.4202 40.8862 40.8861 45.4204 35.3355 45.4204H10.0847C4.53431 45.4204 0 40.8862 0 35.3357C0 29.7853 4.53431 25.251 10.0847 25.251H35.3355Z" fill="#36C5F0"/>
<path d="M75.8307 35.3357C75.8307 29.7853 80.365 25.251 85.9154 25.251C91.4659 25.251 96.0001 29.7853 96.0001 35.3357C96.0001 40.8862 91.4659 45.4204 85.9154 45.4204H75.8307V35.3357Z" fill="#0DB971"/>
<path d="M70.7492 35.3355C70.7492 40.8861 66.2151 45.4202 60.6645 45.4202C55.1141 45.4202 50.5798 40.8861 50.5798 35.3355V10.0847C50.5798 4.53431 55.1141 0 60.6645 0C66.2151 0 70.7492 4.53431 70.7492 10.0847V35.3355Z" fill="#0DB971"/>
<path d="M60.6645 75.8306C66.2151 75.8306 70.7492 80.3649 70.7492 85.9153C70.7492 91.4658 66.2151 95.9999 60.6645 95.9999C55.1141 95.9999 50.5798 91.4658 50.5798 85.9153V75.8306H60.6645Z" fill="#ECB22E"/>
<path d="M60.6645 70.749C55.1141 70.749 50.5798 66.2148 50.5798 60.6643C50.5798 55.1139 55.1141 50.5796 60.6645 50.5796H85.9153C91.4659 50.5796 96 55.1139 96 60.6643C96 66.2148 91.4659 70.749 85.9153 70.749H60.6645Z" fill="#ECB22E"/>
</g>
<defs>
<clipPath id="clip0_296_47">
<rect width="96" height="96" fill="white"/>
</clipPath>
</defs>
</svg>
