<svg width="72" height="72" viewBox="0 0 72 72" fill="none" xmlns="http://www.w3.org/2000/svg">
<g clip-path="url(#clip0_296_33)">
<path d="M15.127 45.4986C15.127 49.6615 11.7264 53.0621 7.56352 53.0621C3.40073 53.0621 0 49.6615 0 45.4986C0 41.3358 3.40073 37.9351 7.56352 37.9351H15.127V45.4986Z" fill="#FF296B"/>
<path d="M18.9381 45.4986C18.9381 41.3358 22.3388 37.9351 26.5016 37.9351C30.6645 37.9351 34.0651 41.3358 34.0651 45.4986V64.4367C34.0651 68.5996 30.6645 72.0002 26.5016 72.0002C22.3388 72.0002 18.9381 68.5996 18.9381 64.4367V45.4986Z" fill="#FF296B"/>
<path d="M26.5016 15.127C22.3388 15.127 18.9381 11.7264 18.9381 7.56352C18.9381 3.40073 22.3388 0 26.5016 0C30.6645 0 34.0651 3.40073 34.0651 7.56352V15.127H26.5016Z" fill="#36C5F0"/>
<path d="M26.5016 18.938C30.6645 18.938 34.0651 22.3387 34.0651 26.5015C34.0651 30.6644 30.6645 34.065 26.5016 34.065H7.56352C3.40073 34.065 0 30.6644 0 26.5015C0 22.3387 3.40073 18.938 7.56352 18.938H26.5016Z" fill="#36C5F0"/>
<path d="M56.8729 26.5015C56.8729 22.3387 60.2737 18.938 64.4364 18.938C68.5994 18.938 72 22.3387 72 26.5015C72 30.6644 68.5994 34.065 64.4364 34.065H56.8729V26.5015Z" fill="#0DB971"/>
<path d="M53.0618 26.5016C53.0618 30.6645 49.6613 34.0651 45.4983 34.0651C41.3355 34.0651 37.9348 30.6645 37.9348 26.5016V7.56352C37.9348 3.40073 41.3355 0 45.4983 0C49.6613 0 53.0618 3.40073 53.0618 7.56352V26.5016Z" fill="#0DB971"/>
<path d="M45.4983 56.873C49.6613 56.873 53.0618 60.2738 53.0618 64.4366C53.0618 68.5995 49.6613 72.0001 45.4983 72.0001C41.3355 72.0001 37.9348 68.5995 37.9348 64.4366V56.873H45.4983Z" fill="#ECB22E"/>
<path d="M45.4983 53.0621C41.3355 53.0621 37.9348 49.6615 37.9348 45.4986C37.9348 41.3358 41.3355 37.9351 45.4983 37.9351H64.4364C68.5994 37.9351 72 41.3358 72 45.4986C72 49.6615 68.5994 53.0621 64.4364 53.0621H45.4983Z" fill="#ECB22E"/>
</g>
<defs>
<clipPath id="clip0_296_33">
<rect width="72" height="72" fill="white"/>
</clipPath>
</defs>
</svg>
